<svg xmlns="http://www.w3.org/2000/svg" xmlns="http://www.w3.org/2000/svg" xmlns:xlink="http://www.w3.org/1999/xlink" width="0" height="0" style="position:absolute;width:0;height:0;overflow:hidden" aria-hidden="true"><defs><style type="text/css">
   
    .fil0 {fill:black;fill-rule:nonzero}
   
  </style>
 </defs><symbol id="nottron-1" viewBox="0 0 261.93 189.62"><g id="Layer_x0020_1">
  <metadata id="CorelCorpID_0Corel-Layer" />
  <g>
   <path class="fil0" d="M131.35 0c-96.9,0 -131.35,49.16 -131.35,94.81 0,45.65 34.46,94.81 131.35,94.81 96.89,0 130.58,-49.16 130.58,-94.81 0,-45.65 -33.69,-94.81 -130.58,-94.81l0 0zm-58.27 63.87c-0.77,-2.85 -0.77,-5.6 -0.77,-8.45 0,-5.59 1.43,-11.19 4.28,-16.13 4.83,-7.02 13.28,-11.96 23.81,-14.05 9.11,-2.08 14.05,-3.51 32.37,-3.51l0.66 0c28.09,0 37.2,26.01 44.99,52.67l2.08 7.02c5.59,18.22 8.45,33.69 8.45,45.65 0,8.45 -1.43,16.13 -4.28,21.73 -4.17,7.79 -11.19,12.73 -23.15,15.47 -6.36,1.43 -16.9,2.08 -16.9,2.08 -3.51,0 -6.26,0.77 -9.11,0.77 -22.49,0 -36.54,-8.45 -46.31,-38.62 -8.45,-26.01 -9.88,-33.69 -16.13,-64.63z" />
  </g>
 </g>
</symbol></svg>