<?xml version="1.0" encoding="UTF-8"?>
<svg xmlns="http://www.w3.org/2000/svg"
     xmlns:xlink="http://www.w3.org/1999/xlink"
     style="display:none">
<symbol id="noteheadBlack" viewBox="0 0 1.525 1.4649999999999999" overflow="visible" data-anchors='{"stemUp":{"x":3.4,"y":2.8},"stemDown":{"x":-0.6,"y":2.2},"dot":{"x":1.5750000000000002,"y":0.7378},"center":{"x":0.7625,"y":0.7324999999999999}}'>
  <g transform="translate(0.925, 0.865) scale(-0.001, -0.001) translate(0, 132)">
    <path d="M0 42C0 85 31 133 112 133C216 133 325 48 325-40C325-99 275-132 213-132C116-132 0-50 0 42Z" />
  </g>
</symbol>
<symbol id="metNoteHalfUp" viewBox="0 0 1.625 2.235" overflow="visible" data-anchors='{}'>
  <g transform="translate(1.025, 1.6349999999999998) scale(-0.001, -0.001) translate(0, 863)">
    <path d="M357-26C317 18 160 116 99 116C80 116 63 108 53 93C49 86 47 78 47 70C47 4 242-99 305-115C307-115 308-115 308-116C315-118 322-119 328-119C355-119 378-99 378-71C378-55 370-38 357-26ZM425-863L370-863L370-152C352-162 329-169 303-172C296-172 289-173 281-173C235-173 186-160 140-135C54-88 0-11 0 55C0 136 73 172 144 172C261 172 421 71 425-54Z" />
  </g>
</symbol>
<symbol id="metNoteQuarterUp" viewBox="0 0 1.625 2.235" overflow="visible" data-anchors='{}'>
  <g transform="translate(1.025, 1.6349999999999998) scale(-0.001, -0.001) translate(1, 863)">
    <path d="M424-862L370-863L370-151C351-162 328-169 301-172C294-172 287-173 279-173C162-173 5-76-1 53C-1 134 71 172 145 172C189 172 238 160 285 135C371 89 424 12 424-54Z" />
  </g>
</symbol>
<symbol id="metNote8thUp" viewBox="0 0 1.911 2.2729999999999997" overflow="visible" data-anchors='{}'>
  <g transform="translate(1.311, 1.673) scale(-0.001, -0.001) translate(0, 901)">
    <path d="M551-608C491-682 456-746 425-836C425-838 424-839 424-839C423-842 416-869 413-880C413-884 412-886 412-887C411-891 407-901 392-901C391-901 390-901 388-900C377-899 370-889 370-880L370-150C351-161 328-168 302-171C295-171 287-172 280-172C166-172 0-73 0 55C0 136 72 172 146 172C190 172 239 160 286 135C372 89 425 12 425-54L425-584C498-538 660-413 660-224C660-121 649-52 627 34C625 40 624 46 624 52C624 59 626 65 634 68C636 69 638 70 640 70C650 70 654 59 658 50L658 49C703-62 711-171 711-238C711-406 649-485 551-608Z" />
  </g>
</symbol>
<symbol id="metAugDot" viewBox="0 0 1.355 1.3559999999999999" overflow="visible" data-anchors='{}'>
  <g transform="translate(0.755, 0.756) scale(-0.001, -0.001) translate(0, 78)">
    <path d="M78-78C35-78 0-43 0 0C0 43 35 78 78 78C121 78 155 43 155 0C155-43 121-78 78-78Z" />
  </g>
</symbol>
</svg>